<svg width="452" height="72" viewBox="0 0 452 72" fill="none" xmlns="http://www.w3.org/2000/svg">
<path d="M0 20C0 8.95431 8.95431 0 20 0H432C443.046 0 452 8.95431 452 20V52C452 63.0457 443.046 72 432 72H20C8.95431 72 0 63.0457 0 52V20Z" fill="#FFB923"/>
<path d="M4 22C4 12.0589 12.0589 4 22 4H430C439.941 4 448 12.0589 448 22V50C448 59.9411 439.941 68 430 68H22C12.0589 68 4 59.9411 4 50V22Z" fill="white"/>
<path d="M44.676 54L32.976 39.18H28.66V54H21.276V17.6H28.66V32.316H32.976L44.156 17.6H52.684L38.904 35.696L53.36 54H44.676Z" fill="black"/>
<path d="M72.654 54.52C62.15 54.52 54.246 46.148 54.246 35.8C54.246 25.452 62.15 17.08 72.654 17.08C83.054 17.08 90.958 25.452 90.958 35.8C90.958 46.148 83.054 54.52 72.654 54.52ZM72.654 47.188C78.998 47.188 83.834 42.04 83.834 35.8C83.834 29.56 78.998 24.412 72.654 24.412C66.258 24.412 61.37 29.56 61.37 35.8C61.37 42.04 66.258 47.188 72.654 47.188Z" fill="black"/>
<path d="M135.613 54H128.281L127.189 30.86L117.829 49.164H113.201L103.789 30.756L102.697 54H95.3646L97.0806 17.6H104.829L115.541 38.348L126.201 17.6H133.949L135.613 54Z" fill="black"/>
<path d="M167.822 21.292C176.142 21.292 182.486 27.532 182.486 35.8C182.486 44.12 176.142 50.308 167.822 50.308H164.962V54H157.63V50.308H154.718C146.398 50.308 140.106 44.12 140.106 35.8C140.106 27.532 146.398 21.292 154.718 21.292H157.63V17.132H164.962V21.292H167.822ZM154.718 43.6H157.63V28H154.718C150.09 28 146.762 31.224 146.762 35.8C146.762 40.428 150.09 43.6 154.718 43.6ZM167.822 43.6C172.45 43.6 175.83 40.428 175.83 35.8C175.83 31.224 172.45 28 167.822 28H164.962V43.6H167.822Z" fill="black"/>
<path d="M204.228 54.52C193.724 54.52 185.82 46.148 185.82 35.8C185.82 25.452 193.724 17.08 204.228 17.08C214.628 17.08 222.532 25.452 222.532 35.8C222.532 46.148 214.628 54.52 204.228 54.52ZM204.228 47.188C210.572 47.188 215.408 42.04 215.408 35.8C215.408 29.56 210.572 24.412 204.228 24.412C197.832 24.412 192.944 29.56 192.944 35.8C192.944 42.04 197.832 47.188 204.228 47.188Z" fill="black"/>
<path d="M240.656 17.6C247.208 17.6 253.292 21.968 253.292 29.82C253.292 37.672 247.208 42.04 240.656 42.04H234.832V54H227.448V17.6H240.656ZM240.656 35.384C244.088 35.384 246.428 33.304 246.428 29.82C246.428 26.336 244.088 24.256 240.656 24.256H234.832V35.384H240.656Z" fill="black"/>
<path d="M283.285 17.6V24.256H273.093V54H265.761V24.256H255.569V17.6H283.285Z" fill="black"/>
<path d="M325.817 54L323.113 48.176H309.489L306.785 54H298.569L316.249 17.08L333.981 54H325.817ZM312.245 42.144H320.305L316.249 33.512L312.245 42.144Z" fill="black"/>
<path d="M359.647 35.072C362.091 36.84 363.703 39.492 363.703 43.028C363.703 49.944 358.295 54 351.483 54H337.339V17.6H350.286C357.254 17.6 362.402 21.136 362.402 28.156C362.402 31.12 361.363 33.408 359.647 35.072ZM349.611 24.048H344.723V32.472H349.611C353.043 32.472 355.487 31.484 355.487 28.156C355.487 24.88 353.043 24.048 349.611 24.048ZM351.014 47.344C354.498 47.344 356.786 46.044 356.786 42.924C356.786 39.804 354.498 38.4 351.014 38.4H344.723V47.344H351.014Z" fill="black"/>
<path d="M393.43 17.6V24.256H383.238V54H375.906V24.256H365.714V17.6H393.43Z" fill="black"/>
<path d="M413.295 54.52C402.791 54.52 394.887 46.148 394.887 35.8C394.887 25.452 402.791 17.08 413.295 17.08C423.695 17.08 431.599 25.452 431.599 35.8C431.599 46.148 423.695 54.52 413.295 54.52ZM413.295 47.188C419.639 47.188 424.475 42.04 424.475 35.8C424.475 29.56 419.639 24.412 413.295 24.412C406.899 24.412 402.011 29.56 402.011 35.8C402.011 42.04 406.899 47.188 413.295 47.188Z" fill="black"/>
</svg>
