<svg width="115" height="115" viewBox="0 0 115 115" fill="none" xmlns="http://www.w3.org/2000/svg">
<path d="M104.975 25.9186H87.3076C86.9179 25.9186 86.5714 26.2677 86.5714 26.6605V76.5392C86.5714 76.7574 86.3982 76.9319 86.1817 76.9319H28.025C28.025 76.9319 27.6353 76.7574 27.6353 76.5392V66.066C27.6353 65.6732 27.2888 65.3677 26.8991 65.3677H9.36116C8.97143 65.3677 8.625 65.6732 8.625 66.066V82.8667C8.625 86.8378 11.8295 90.0671 15.8134 90.0671H98.4799C102.421 90.0671 105.625 86.8378 105.625 82.8667V26.5296C105.625 26.1805 105.365 25.875 104.975 25.875V25.9186Z" fill="#2B2A29"/>
</svg>
