<svg width="115" height="115" viewBox="0 0 115 115" fill="none" xmlns="http://www.w3.org/2000/svg">
<path d="M89.8887 45.1328C82.9818 43.0676 74.2871 41.6497 64.6701 41.1755C62.3758 41.0624 60.0792 41.0038 57.7822 41H57.2178C54.88 41.0047 52.5824 41.064 50.3347 41.1755C40.7153 41.6497 32.0182 43.0628 25.1137 45.1351C15.2217 48.0895 9 52.3882 9 57.1659C9 61.2109 13.4647 64.9145 20.8387 67.7503C23.831 68.9026 27.3046 69.9127 31.1575 70.7426C34.4929 71.4562 37.8605 72.0101 41.2488 72.4023C46.643 73.03 52.0694 73.3403 57.5 73.3317C62.9306 73.3403 68.357 73.0299 73.7512 72.4023C77.1393 72.0089 80.5069 71.4551 83.8425 70.7426C87.6931 69.9127 91.169 68.9002 94.1613 67.7503C101.538 64.9169 106 61.2133 106 57.1659C106 52.3858 99.7783 48.0895 89.8863 45.1304L89.8887 45.1328ZM29.1374 61.742C27.1196 63.205 24.4664 63.4966 22.1973 62.4652C17.9389 60.5328 15.4635 58.2305 15.4635 55.7575C15.4635 52.6561 19.3592 49.818 25.7895 47.6484C32.7722 45.2916 42.7425 43.722 53.9671 43.4493L54.4176 43.4398C55.0934 43.4232 55.7691 43.4161 56.4567 43.409C55.9967 43.4801 55.5557 43.5939 55.1337 43.7528L55.1171 43.7575C54.9748 43.8121 54.8326 43.869 54.6974 43.933L54.6761 43.9188C52.9926 44.5945 50.7164 46.1405 49.9814 46.6526L49.8557 46.7427L49.7395 46.8233L31.8025 59.812L29.1374 61.742ZM74.472 67.0603C69.2794 67.7361 63.5391 68.1107 57.5024 68.1107C51.4633 68.1107 45.723 67.7361 40.5327 67.0603C35.7906 66.2067 38.0763 62.9916 39.3164 61.6116C39.5108 61.3916 39.7158 61.1812 39.9305 60.9809L39.9376 60.9738C44.1517 56.6937 48.6342 52.6864 53.3578 48.9762H53.3649C53.4571 48.8994 53.552 48.8259 53.6494 48.7557C54.3062 48.2649 55.9825 47.1434 57.5024 47.1458C59.0151 47.1434 60.6938 48.2649 61.3506 48.7557C61.4357 48.8151 61.518 48.8784 61.5972 48.9454L61.628 48.9691L61.6422 48.981C66.3678 52.6932 70.8526 56.7021 75.0695 60.9833C75.2666 61.168 75.4556 61.361 75.6362 61.5618C76.8692 62.9133 79.2663 66.1925 74.472 67.0603ZM92.8051 62.4652C91.6868 62.9672 90.4557 63.1647 89.2365 63.0377C88.0174 62.9107 86.8534 62.4637 85.8626 61.742L83.1975 59.812L65.2605 46.8233C65.2605 46.8233 65.2391 46.8115 65.2012 46.7806L65.1467 46.7427L65.021 46.6526C64.286 46.1405 62.0098 44.5945 60.3239 43.9188L60.3026 43.933C60.1707 43.8712 60.0362 43.8151 59.8995 43.7647L59.8687 43.7528C59.4422 43.5933 59.0005 43.4781 58.5504 43.409C59.3796 43.4136 60.2087 43.427 61.0376 43.4493C72.2598 43.722 82.2301 45.2916 89.2105 47.6461H89.2129C95.6432 49.818 99.5389 52.6561 99.5389 55.7575C99.5389 58.2305 97.0659 60.5328 92.8051 62.4652Z" fill="black"/>
</svg>
