<svg width="116" height="115" viewBox="0 0 116 115" fill="none" xmlns="http://www.w3.org/2000/svg">
<path fill-rule="evenodd" clip-rule="evenodd" d="M35.1547 36.3204C40.6385 35.342 46.1906 34.9096 51.7426 34.5683C55.5653 34.5001 59.3653 34.4773 63.188 34.5683C69.3771 34.9096 75.5663 35.433 81.6417 36.639C88.468 37.9132 95.226 39.7791 101.529 42.7371C104.783 44.3072 107.946 46.173 110.562 48.676C112.587 50.5191 114.18 52.931 114.886 55.5933C115.045 56.9358 115.09 58.3238 114.908 59.6663C114.34 62.2603 112.792 64.5584 110.904 66.4015C108.196 69.1548 104.806 71.1117 101.37 72.7727C97.9337 74.3655 94.3613 75.6625 90.7206 76.6637C83.462 78.7343 75.9531 79.8948 68.4215 80.4864C66.6921 80.7367 64.9401 80.6002 63.2107 80.805C51.8336 81.1235 40.3882 80.4409 29.2614 77.8924C22.6171 76.3679 16.0412 74.229 10.1023 70.8159C6.96222 68.9273 3.91315 66.6518 1.88802 63.5345C0.522767 61.4639 -0.250878 58.9154 0.11319 56.4352C0.522767 53.6364 2.09281 51.1562 4.04968 49.1766C6.55264 46.6281 9.62447 44.7167 12.8101 43.1239C19.7956 39.6425 27.4638 37.6402 35.1547 36.3204ZM24.5513 42.1683C20.2962 43.67 16.1322 45.6041 12.5825 48.4257C10.9215 49.7909 9.37417 51.361 8.35023 53.2723C7.07599 55.5478 6.78019 58.3693 7.75862 60.804C9.07837 64.3081 12.0819 66.8111 15.1082 68.7907C18.8855 71.1344 23.004 72.8637 27.259 74.1152C27.6231 73.3416 27.9416 72.5907 28.283 71.817C28.5788 71.1572 29.3752 71.2709 29.944 71.362C36.6793 72.4087 43.5056 72.6362 50.3091 72.2721C54.3138 72.0218 58.3413 71.7033 62.2551 70.7931C64.394 70.2015 66.7376 69.4734 68.0802 67.562C69.2634 65.9237 68.9903 63.7848 68.74 61.9189C68.6263 61.2136 68.9448 60.5082 69.5364 60.1441C70.7424 59.3022 71.9711 58.4831 73.1771 57.6184C73.6322 57.2998 74.2238 57.3908 74.7471 57.3908C77.6142 57.5956 80.4585 57.7777 83.3255 57.937C83.3027 58.9609 82.7566 59.8938 82.5063 60.8722C80.8225 61.2591 79.1615 61.6459 77.4549 61.9189C77.3639 62.0327 77.2046 62.2603 77.1136 62.3513C77.3184 62.5788 77.5459 62.8064 77.7962 62.9884C79.7531 64.3537 81.2321 66.4015 81.8237 68.7225C82.0058 69.8147 82.0513 70.9524 81.7555 72.0446C81.4596 73.5919 80.4585 74.8661 79.5711 76.1176C85.2824 74.8661 90.9482 73.2278 96.2044 70.6338C99.7086 68.8135 103.144 66.5836 105.465 63.3297C106.626 61.7142 107.149 59.7573 107.377 57.8232C107.468 56.64 107.104 55.5022 106.785 54.3873C105.511 50.9741 102.712 48.4257 99.7768 46.4233C95.7721 43.7611 91.244 42.0545 86.6704 40.6665C83.4393 39.7791 80.1854 38.9599 76.8405 38.5503C76.795 38.5048 76.704 38.391 76.6585 38.3455C76.795 39.0964 77.0681 39.8018 77.1819 40.5527C77.4777 42.0545 77.4094 43.6018 77.2729 45.1036C76.7723 48.0844 75.1795 50.7239 73.3136 53.0448C68.4442 58.9836 61.5952 63.3297 54.0863 65.059C50.5139 65.8327 46.8959 66.4925 43.2553 66.6746C39.1595 67.0159 35.041 66.8111 30.9224 66.7428C30.7859 66.447 30.6494 66.1512 30.8769 65.8782C33.8577 59.1429 36.8613 52.4532 39.8421 45.7179C40.9798 43.1239 42.1631 40.5527 43.3008 37.9587C36.9751 38.7779 30.6039 39.9838 24.5513 42.1683ZM44.5522 45.1263C42.072 50.6783 39.5918 56.2531 37.1116 61.8052C37.1116 61.8962 37.0889 62.101 37.0889 62.192C37.8853 61.8052 38.7499 61.6231 39.5463 61.2363C42.6636 59.8256 45.2349 57.4364 47.4193 54.8196C49.6264 52.0891 51.6516 49.1766 53.1534 45.991C53.9043 44.2616 54.5869 42.2593 53.927 40.3934C53.4719 39.233 52.2432 38.7324 51.151 38.4138C49.9905 38.2773 48.8073 38.3 47.6468 38.3228C46.5091 40.5299 45.5762 42.8509 44.5522 45.1263Z" fill="#0059A2"/>
</svg>
