<svg width="215" height="24" viewBox="0 0 215 24" fill="none" xmlns="http://www.w3.org/2000/svg">
<g clip-path="url(#clip0_3247_13559)">
<path d="M12.7012 8.56392C12.7012 4.65203 15.944 1.48022 19.9435 1.48022C23.943 1.48022 27.1858 4.65203 27.1858 8.56392C27.1858 12.4758 23.943 15.6476 19.9435 15.6476C15.944 15.6476 12.7012 12.4758 12.7012 8.56392Z" fill="#FF8F32"/>
<path d="M39.9409 18.2908H0V23.63H39.9409V18.2908Z" fill="#FF8F32"/>
<path d="M2.70236 1.42725C1.78356 1.42725 0.864756 1.58584 0 1.95588V15.1189C3.72926 16.5991 7.94495 14.8017 9.45827 11.1541C10.9716 7.50654 9.13399 3.38319 5.40473 1.95588C4.53997 1.6387 3.62117 1.42725 2.70236 1.42725Z" fill="#FF8F32"/>
<path d="M37.1812 1.42725C38.1 1.42725 39.0188 1.58584 39.8836 1.95588V15.1189C36.1543 16.5991 31.9386 14.8546 30.4253 11.207C28.912 7.55941 30.6955 3.43606 34.4248 1.95588C35.3436 1.6387 36.2624 1.42725 37.1812 1.42725Z" fill="#FF8F32"/>
</g>
<g clip-path="url(#clip1_3247_13559)">
<path d="M69.831 4.86336C71.9929 6.97789 73.0738 9.62107 73.0738 12.7929C73.0738 15.9647 71.9929 18.6078 69.831 20.7224C67.6691 22.8898 64.9667 23.9471 61.6699 23.9471C57.6704 23.9471 54.1573 21.9911 52.2656 18.8722L55.9949 16.7576C57.0218 18.6078 59.1837 19.7708 61.6699 19.7708C65.237 19.7708 67.7772 17.8149 68.5339 14.696H58.7513V10.7312H68.5339C67.7772 7.61225 65.237 5.65631 61.6699 5.65631C59.1837 5.65631 57.0758 6.76644 55.9949 8.72239L52.2656 6.60785C54.1573 3.48891 57.7244 1.53296 61.6699 1.53296C64.9667 1.63869 67.6691 2.69595 69.831 4.86336Z" fill="#22284B"/>
<path d="M90.3681 23.5242H85.666L79.991 16.5463V23.5242H75.9375V8.19385H79.991V14.9604L85.3958 8.19385H90.206L83.8824 15.7533L90.3681 23.5242Z" fill="#22284B"/>
<path d="M92.8025 21.6212C91.2352 20.0353 90.4785 18.1322 90.4785 15.8591C90.4785 13.586 91.2352 11.6829 92.8025 10.097C94.424 8.51108 96.3697 7.771 98.7477 7.771C101.774 7.771 104.477 9.30404 105.774 11.7358L102.315 13.7446C101.666 12.4758 100.315 11.6829 98.7477 11.6829C96.3156 11.6829 94.5321 13.4274 94.5321 15.8591C94.5321 17.075 94.9644 18.0794 95.7211 18.8723C96.5318 19.6124 97.5047 20.0353 98.7477 20.0353C100.369 20.0353 101.72 19.2952 102.369 18.0265L105.882 19.9824C104.477 22.4142 101.828 23.9472 98.8018 23.9472C96.3697 23.9472 94.424 23.2071 92.8025 21.6212Z" fill="#22284B"/>
<path d="M122.418 8.19385V23.5242H118.365V11.8943H112.149V23.5242H108.096V8.19385H122.418Z" fill="#22284B"/>
<path d="M133.552 23.9472C131.228 23.9472 129.283 23.2071 127.661 21.6212C126.04 20.0353 125.283 18.1322 125.283 15.8591C125.283 13.586 126.04 11.6829 127.661 10.1499C129.283 8.56395 131.228 7.771 133.552 7.771C135.876 7.771 137.822 8.56395 139.444 10.1499C141.065 11.7358 141.876 13.6388 141.876 15.8591C141.876 18.0794 141.065 20.0353 139.444 21.6212C137.822 23.2071 135.876 23.9472 133.552 23.9472ZM133.552 20.0882C134.796 20.0882 135.768 19.6653 136.579 18.8723C137.39 18.0794 137.822 17.075 137.822 15.8591C137.822 14.6432 137.39 13.6388 136.579 12.8459C135.768 12.0529 134.741 11.63 133.552 11.63C132.309 11.63 131.336 12.0529 130.526 12.8459C129.769 13.6388 129.337 14.6432 129.337 15.8591C129.337 17.075 129.769 18.0794 130.526 18.8723C131.336 19.6653 132.309 20.0882 133.552 20.0882Z" fill="#22284B"/>
<path d="M146.145 21.6212C144.632 20.0353 143.875 18.0793 143.875 15.7005C143.875 13.1102 144.307 11.0485 145.064 9.67405C145.875 8.24674 147.442 6.92516 149.874 5.76216C150.199 5.60357 150.739 5.33925 151.388 5.07494L152.685 4.44058C152.955 4.33485 153.279 4.1234 153.712 3.91194C154.847 3.22472 155.171 2.69608 155.711 1.48022L159.008 3.33044C158.738 4.59917 158.143 5.55071 157.171 6.23793C156.252 6.92516 154.847 7.61238 152.901 8.29961C150.253 9.30401 149.226 10.2556 148.685 11.6829C149.82 10.5199 151.388 9.93837 153.387 9.93837C155.117 9.93837 156.684 10.5727 158.035 11.7886C159.387 13.0045 160.089 14.6432 160.089 16.7049C160.089 18.8194 159.387 20.5111 157.873 21.8855C156.414 23.26 154.522 23.8943 152.144 23.8943C149.658 23.9472 147.712 23.2071 146.145 21.6212ZM149.334 14.0617C148.523 14.6961 148.145 15.5419 148.145 16.5992C148.145 17.6564 148.523 18.5551 149.28 19.2423C150.09 19.9296 151.009 20.2996 152.144 20.2996C153.279 20.2996 154.198 19.9824 154.955 19.2952C155.657 18.608 156.036 17.7622 156.036 16.7049C156.036 14.6432 154.414 13.1102 152.144 13.1102C151.063 13.1102 150.144 13.4274 149.334 14.0617Z" fill="#22284B"/>
<path d="M174.411 8.1939H178.465V23.5243H174.411V21.7269C173.168 23.2071 171.493 23.9472 169.277 23.9472C167.169 23.9472 165.386 23.2071 163.872 21.6212C162.413 20.0353 161.656 18.1322 161.656 15.8591C161.656 13.586 162.413 11.6829 163.872 10.1499C165.386 8.56395 167.169 7.771 169.277 7.771C171.493 7.771 173.168 8.51108 174.411 9.99126V8.1939ZM170.034 20.1939C171.277 20.1939 172.304 19.771 173.114 18.978C173.979 18.1322 174.357 17.1278 174.357 15.8591C174.357 14.5904 173.925 13.586 173.114 12.7402C172.304 11.8943 171.277 11.5243 170.034 11.5243C168.79 11.5243 167.764 11.9472 166.953 12.7402C166.142 13.5331 165.71 14.5904 165.71 15.8591C165.71 17.1278 166.142 18.1851 166.953 18.978C167.764 19.771 168.79 20.1939 170.034 20.1939Z" fill="#22284B"/>
<path d="M192.414 8.19385H196.467V23.5242H192.414V17.7093H186.198V23.5242H182.145V8.19385H186.198V14.0088H192.414V8.19385Z" fill="#22284B"/>
<path d="M214.569 23.5242H209.867L204.138 16.5463V23.5242H200.084V8.19385H204.138V14.9604L209.542 8.19385H214.352L208.083 15.7533L214.569 23.5242Z" fill="#22284B"/>
</g>
<defs>
<clipPath id="clip0_3247_13559">
<rect width="40" height="24" fill="white"/>
</clipPath>
<clipPath id="clip1_3247_13559">
<rect width="163" height="24" fill="white" transform="translate(52)"/>
</clipPath>
</defs>
</svg>
